# xmcd
#
# Track frame offsets:
# 150
# 16082
# 32742
# 53192
# 69807
# 95802
# 117800
# 134840
# 154785
# 173345
# 193162
#
# Disc length: 2871 seconds
#
# Revision: 0
# Processed by: cddbd v1.4PL0 Copyright (c) Steve Scherf et al.
# Submitted via: Axialis_AX_CDPlayer 2.6
#
DISCID=8d0b350b
DTITLE=Robert Randolph and The Family Band - Unclassified
DYEAR=1900
DGENRE=
TTITLE0=Going In The Right Direction
TTITLE1=I Need More Love
TTITLE2=Nobody
TTITLE3=Soul Refreshing
TTITLE4=Squeeze
TTITLE5=Smile
TTITLE6=Good Times (3 Stroke)
TTITLE7=Why Should I Feel Lonely
TTITLE8=Calypso
TTITLE9=Problems
TTITLE10=Run For Your Life
EXTD=
EXTT0=
EXTT1=
EXTT2=
EXTT3=
EXTT4=
EXTT5=
EXTT6=
EXTT7=
EXTT8=
EXTT9=
EXTT10=
PLAYORDER=
